<svg xmlns="http://www.w3.org/2000/svg" viewBox="0 0 1.49 1.49"><defs><style>.cls-1{fill:#ff7657;}.cls-2{fill:#fff;}</style></defs><g id="Layer_2" data-name="Layer 2"><g id="Text"><path class="cls-1" d="M1.49.74A.75.75,0,1,1,0,.74.74.74,0,0,1,.74,0,.74.74,0,0,1,1.49.74Z"/><path class="cls-2" d="M.74,1.05a.31.31,0,0,1,0-.61.31.31,0,0,1,.31.3A.31.31,0,0,1,.74,1.05Zm0-.53A.22.22,0,0,0,.52.74.23.23,0,1,0,.74.52Z"/><path class="cls-2" d="M.81.74A.07.07,0,0,1,.74.81.07.07,0,0,1,.68.74.06.06,0,0,1,.74.68.07.07,0,0,1,.81.74Z"/></g></g></svg>