<svg xmlns="http://www.w3.org/2000/svg" viewBox="0 0 1.49 1.49"><defs><style>.cls-1{fill:#28333c;}.cls-2{fill:#fff;}</style></defs><g id="Layer_2" data-name="Layer 2"><g id="Text"><circle class="cls-1" cx="0.74" cy="0.74" r="0.74"/><path class="cls-2" d="M.74,1s0,0,0,0L.5.78A.16.16,0,0,1,.44.66.16.16,0,0,1,.5.53a.16.16,0,0,1,.24,0h0A.18.18,0,0,1,1,.78L.77,1ZM.62.56a.09.09,0,0,0-.07,0,.08.08,0,0,0,0,.07.11.11,0,0,0,0,.07L.74.92l.2-.2A.1.1,0,1,0,.8.58l0,0a0,0,0,0,1-.05,0l0,0A.09.09,0,0,0,.62.56Z"/></g></g></svg>