<svg xmlns="http://www.w3.org/2000/svg" viewBox="0 0 1.49 1.49"><defs><style>.cls-1{fill:#ff7657;}.cls-2{fill:#fff;}</style></defs><g id="Layer_2" data-name="Layer 2"><g id="Text"><path class="cls-1" d="M1.49.74A.75.75,0,1,1,0,.74.74.74,0,0,1,.74,0,.74.74,0,0,1,1.49.74Z"/><path class="cls-2" d="M.74,1s0,0,0,0L.5.78A.18.18,0,0,1,.5.53a.16.16,0,0,1,.24,0h0A.17.17,0,0,1,1,.53.15.15,0,0,1,1,.65.17.17,0,0,1,1,.78L.77,1ZM.62.56.55.58a.11.11,0,0,0,0,.15L.74.92l.2-.2A.09.09,0,0,0,1,.65a.11.11,0,0,0,0-.07A.11.11,0,0,0,.8.58l0,0h0s0,0,0,0l0,0Z"/></g></g></svg>