<svg xmlns="http://www.w3.org/2000/svg" viewBox="0 0 14.99 7.52"><defs><style>.cls-1{opacity:0.2;}.cls-2{fill:#28333c;}.cls-3{fill:#665c84;}.cls-4{fill:#ffba5a;}.cls-5{fill:#fff;}</style></defs><g id="Layer_2" data-name="Layer 2"><g id="Text"><g class="cls-1"><rect class="cls-2" x="0.17" width="14.64" height="0.05"/></g><g class="cls-1"><rect class="cls-2" x="0.17" y="1.87" width="14.64" height="0.05"/></g><g class="cls-1"><rect class="cls-2" x="0.17" y="3.73" width="14.64" height="0.05"/></g><g class="cls-1"><rect class="cls-2" x="0.17" y="5.6" width="14.64" height="0.05"/></g><g class="cls-1"><rect class="cls-2" x="0.17" y="7.46" width="14.64" height="0.05"/></g><path class="cls-3" d="M11.68,4.72a.92.92,0,0,1-.43-.13A2.19,2.19,0,0,1,10.37,3c0-.19-.08-.37-.13-.55a3,3,0,0,0-.32-.76,1.06,1.06,0,0,0-.46-.42C8.87,1,8.38,1.61,8,2.18l-.11.18c-.47.74-1.16,1.86-2.18,1.31A2.37,2.37,0,0,1,5,2.73l-.07-.12C4.52,2,4,1.33,3.36,1.51s-.89.73-1.21,1.25l-.26.41A2.17,2.17,0,0,1,.17,4.28v-.1A2,2,0,0,0,1.8,3.11c.09-.12.17-.26.26-.4.33-.54.7-1.15,1.28-1.3.81-.22,1.38.74,1.63,1.15L5,2.68a2.35,2.35,0,0,0,.74.9c.93.51,1.6-.57,2-1.28l.11-.17c.25-.39.84-1.31,1.58-1a1.1,1.1,0,0,1,.5.46,3.2,3.2,0,0,1,.34.8c.05.17.09.37.13.55A2.08,2.08,0,0,0,11.3,4.5a.7.7,0,0,0,.59.08c.39-.12.77-.6,1.11-1.37.11-.23.2-.47.29-.7A6,6,0,0,1,14.21.75a.93.93,0,0,1,.6-.37v.1a.85.85,0,0,0-.53.34,6,6,0,0,0-.91,1.73c-.09.23-.18.47-.28.7-.36.81-.76,1.29-1.18,1.43A1,1,0,0,1,11.68,4.72Z"/><path class="cls-4" d="M5.72,7.29H5.66c-.35,0-.59-.4-.7-.61a5,5,0,0,1-.34-.88L4.5,5.45c-.21-.61-.62-1.32-1.35-1.26a4.44,4.44,0,0,0-1.09.3,2.55,2.55,0,0,1-1.91.19l0-.09A2.53,2.53,0,0,0,2,4.39a4.42,4.42,0,0,1,1.12-.3h.09c.59,0,1,.45,1.36,1.33a3.58,3.58,0,0,1,.11.35,6.41,6.41,0,0,0,.34.86c.1.2.32.53.62.56h0c.55,0,.94-.86,1.13-1.27l0-.12a4,4,0,0,1,.59-1,1,1,0,0,1,.74-.41h0a1.66,1.66,0,0,1,1.12.74c.32.4.65.76,1,.76h0a1.19,1.19,0,0,0,.91-.72,8,8,0,0,0,.35-.91c.3-.88.64-1.88,1.39-1.93a1,1,0,0,1,.79.41,6,6,0,0,1,.94,2l.07.19-.1,0-.06-.19a6,6,0,0,0-.93-2,.89.89,0,0,0-.67-.38h0c-.69,0-1,1-1.31,1.86a7.36,7.36,0,0,1-.35.93,1.3,1.3,0,0,1-1,.78h0c-.44,0-.78-.38-1.12-.8s-.72-.7-1-.71h0a.92.92,0,0,0-.67.38,4.2,4.2,0,0,0-.57,1L6.93,6C6.73,6.39,6.33,7.29,5.72,7.29Z"/><circle class="cls-5" cx="14.82" cy="0.43" r="0.17"/><circle class="cls-3" cx="14.82" cy="0.43" r="0.13"/><path class="cls-5" d="M13.11,3.46a.17.17,0,0,1-.34,0,.17.17,0,1,1,.34,0Z"/><path class="cls-3" d="M13.07,3.46a.13.13,0,0,1-.26,0,.13.13,0,1,1,.26,0Z"/><circle class="cls-5" cx="10.34" cy="2.62" r="0.17"/><path class="cls-3" d="M10.47,2.62a.13.13,0,0,1-.13.13.12.12,0,0,1-.12-.13.12.12,0,0,1,.12-.12A.13.13,0,0,1,10.47,2.62Z"/><path class="cls-5" d="M7.3,3.33a.18.18,0,0,1-.18.18A.18.18,0,0,1,7,3.33a.18.18,0,0,1,.17-.17A.18.18,0,0,1,7.3,3.33Z"/><path class="cls-3" d="M7.25,3.33a.13.13,0,0,1-.13.13A.12.12,0,0,1,7,3.33a.12.12,0,0,1,.12-.12A.12.12,0,0,1,7.25,3.33Z"/><path class="cls-5" d="M5,2.45a.17.17,0,0,1-.17.17.17.17,0,1,1,0-.34A.17.17,0,0,1,5,2.45Z"/><path class="cls-3" d="M4.94,2.45a.12.12,0,0,1-.12.13.13.13,0,0,1-.13-.13.12.12,0,0,1,.13-.12A.12.12,0,0,1,4.94,2.45Z"/><circle class="cls-5" cx="2.35" cy="2.33" r="0.17"/><circle class="cls-3" cx="2.35" cy="2.33" r="0.13"/><circle class="cls-5" cx="0.17" cy="4.23" r="0.17"/><path class="cls-3" d="M.3,4.23a.12.12,0,0,1-.13.12.12.12,0,0,1-.12-.12A.12.12,0,0,1,.17,4.1.13.13,0,0,1,.3,4.23Z"/><path class="cls-5" d="M.35,4.66a.18.18,0,0,1-.18.18A.18.18,0,0,1,0,4.66a.18.18,0,0,1,.17-.17A.18.18,0,0,1,.35,4.66Z"/><path class="cls-4" d="M.3,4.66a.13.13,0,0,1-.13.13.12.12,0,0,1-.12-.13.12.12,0,0,1,.12-.12A.13.13,0,0,1,.3,4.66Z"/><circle class="cls-5" cx="3.51" cy="4.18" r="0.17"/><path class="cls-4" d="M3.64,4.18a.12.12,0,0,1-.13.12.12.12,0,0,1-.12-.12.13.13,0,0,1,.12-.13A.13.13,0,0,1,3.64,4.18Z"/><path class="cls-5" d="M6.85,6.35a.17.17,0,0,1-.17.17.18.18,0,0,1-.18-.17.18.18,0,0,1,.18-.18A.17.17,0,0,1,6.85,6.35Z"/><path class="cls-4" d="M6.8,6.35a.12.12,0,0,1-.12.12.12.12,0,0,1-.13-.12.13.13,0,0,1,.13-.13A.12.12,0,0,1,6.8,6.35Z"/><path class="cls-5" d="M9.05,4.66a.18.18,0,0,1-.17.18.18.18,0,0,1-.18-.18.18.18,0,0,1,.18-.17A.18.18,0,0,1,9.05,4.66Z"/><path class="cls-4" d="M9,4.66a.12.12,0,0,1-.12.13.13.13,0,0,1-.13-.13.13.13,0,0,1,.13-.12A.12.12,0,0,1,9,4.66Z"/><path class="cls-5" d="M15,5a.17.17,0,0,1-.34,0A.17.17,0,1,1,15,5Z"/><path class="cls-4" d="M14.93,5a.13.13,0,0,1-.26,0,.13.13,0,0,1,.26,0Z"/><path class="cls-5" d="M12.07,3.63a.18.18,0,0,1-.18.18.18.18,0,0,1-.17-.18.18.18,0,0,1,.17-.17A.18.18,0,0,1,12.07,3.63Z"/><path class="cls-4" d="M12,3.63a.13.13,0,0,1-.13.13.13.13,0,0,1-.12-.13.12.12,0,0,1,.12-.12A.12.12,0,0,1,12,3.63Z"/></g></g></svg>