<svg xmlns="http://www.w3.org/2000/svg" viewBox="0 0 6.01 3.39"><defs><style>.cls-1{fill:#ff7657;}.cls-2{fill:#ffba5a;}.cls-3{fill:#f2f2f3;}</style></defs><g id="Layer_2" data-name="Layer 2"><g id="Text"><path class="cls-1" d="M.07,2.72A.07.07,0,0,1,0,2.65V.74A.07.07,0,0,1,.07.67.07.07,0,0,1,.14.74V2.65A.07.07,0,0,1,.07,2.72Z"/><path class="cls-2" d="M.6,3.18a.07.07,0,0,1-.07-.07V.28A.08.08,0,0,1,.6.21.08.08,0,0,1,.67.28V3.11A.07.07,0,0,1,.6,3.18Z"/><path class="cls-3" d="M1.14,2.83a.07.07,0,0,1-.07-.07V.63a.07.07,0,1,1,.14,0V2.76A.07.07,0,0,1,1.14,2.83Z"/><path class="cls-2" d="M1.67,2.67A.08.08,0,0,1,1.6,2.6V.8a.07.07,0,1,1,.14,0V2.6A.08.08,0,0,1,1.67,2.67Z"/><path class="cls-1" d="M2.2,3.39a.08.08,0,0,1-.07-.07V.07A.08.08,0,0,1,2.2,0a.07.07,0,0,1,.07.07V3.32A.07.07,0,0,1,2.2,3.39Z"/><path class="cls-3" d="M2.74,2.92a.07.07,0,0,1-.07-.07V.54a.07.07,0,1,1,.14,0V2.85A.07.07,0,0,1,2.74,2.92Z"/><path class="cls-2" d="M3.27,2.63a.07.07,0,0,1-.07-.07V.83a.07.07,0,1,1,.14,0V2.56A.07.07,0,0,1,3.27,2.63Z"/><path class="cls-3" d="M3.81,2.49a.07.07,0,0,1-.07-.07V1A.07.07,0,0,1,3.81.9.08.08,0,0,1,3.88,1V2.42A.08.08,0,0,1,3.81,2.49Z"/><path class="cls-2" d="M4.34,2.78a.07.07,0,0,1-.07-.07v-2a.07.07,0,1,1,.14,0v2A.07.07,0,0,1,4.34,2.78Z"/><path class="cls-1" d="M4.87,3.39a.07.07,0,0,1-.07-.07V.07a.07.07,0,0,1,.14,0V3.32A.07.07,0,0,1,4.87,3.39Z"/><path class="cls-3" d="M5.41,3a.07.07,0,0,1-.07-.07V.5A.07.07,0,0,1,5.41.43.08.08,0,0,1,5.48.5V2.89A.08.08,0,0,1,5.41,3Z"/><path class="cls-2" d="M5.94,2.71a.07.07,0,0,1-.07-.07V.75A.07.07,0,1,1,6,.75V2.64A.07.07,0,0,1,5.94,2.71Z"/></g></g></svg>