<svg xmlns="http://www.w3.org/2000/svg" viewBox="0 0 8.51 1.47"><defs><style>.cls-1{fill:#665c84;}.cls-2{fill:#ff7657;}</style></defs><g id="Layer_2" data-name="Layer 2"><g id="Text"><path class="cls-1" d="M.37,1v.45H0V0H.88V.35H.37v.3H.82V1Z"/><path class="cls-1" d="M1.79,1.12v.31H1.08V1.12h.18V.34H1.09V0h.69V.34H1.61v.78Z"/><path class="cls-1" d="M2,.35V0H3V.35H2.66V1.43H2.31V.35Z"/><path class="cls-2" d="M3.64.74v.69H3.27V0H3.4l.71.69V0h.37V1.43H4.35Z"/><path class="cls-2" d="M5.76.35H5.24v.2h.48V.87H5.24v.24h.54v.32h-.9V0h.88Z"/><path class="cls-2" d="M6.82,1c0-.1-.12-.12-.26-.13-.31,0-.51-.13-.51-.43,0-.61,1.08-.61,1.07,0H6.78c0-.19-.38-.17-.39,0s.1.13.23.15.55.07.55.42c0,.59-1.15.6-1.14,0h.35C6.38,1.18,6.82,1.18,6.82,1Z"/><path class="cls-2" d="M8.16,1C8.16.92,8,.9,7.9.89c-.3,0-.5-.13-.51-.43,0-.61,1.09-.61,1.08,0H8.13c0-.19-.38-.17-.39,0S7.83.58,8,.6c.28,0,.55.07.55.42,0,.59-1.15.6-1.14,0h.35C7.72,1.18,8.16,1.18,8.16,1Z"/></g></g></svg>