<svg xmlns="http://www.w3.org/2000/svg" viewBox="0 0 6.53 3.14"><defs><style>.cls-1{fill:#665c84;}</style></defs><g id="Layer_2" data-name="Layer 2"><g id="Text"><path class="cls-1" d="M1.13.36A.11.11,0,0,0,1,.47v.71a.11.11,0,0,0,.1.11.11.11,0,0,0,.11-.11V.47A.11.11,0,0,0,1.13.36Z"/><path class="cls-1" d="M1.13,1.41a.1.1,0,0,0-.1.1V1.6a.11.11,0,0,0,.1.11.11.11,0,0,0,.11-.11V1.51A.1.1,0,0,0,1.13,1.41Z"/><path class="cls-1" d="M6.43.36H6V.1a.1.1,0,0,0-.1-.1H4.86a.1.1,0,0,0-.1.1v1h-3V.1a.1.1,0,0,0-.1-.1H.6A.1.1,0,0,0,.5.1V.36H.1A.11.11,0,0,0,0,.47V2.68a.11.11,0,0,0,.1.1H.5V3a.09.09,0,0,0,.1.1H1.67a.09.09,0,0,0,.1-.1V2h3V3a.09.09,0,0,0,.1.1H5.93A.09.09,0,0,0,6,3V2.78h.4a.11.11,0,0,0,.1-.1V.47A.11.11,0,0,0,6.43.36Zm-2.19,1v.44h-2V1.35ZM.2,2.58v-2H.5v2Zm1.37.36H.7V.2h.87V2.94Zm.2-1.59h.31v.44H1.77Zm2.68.44V1.35h.31v.44ZM5.83,2.94H5V.2h.87V2.94Zm.5-.36H6v-2h.3Z"/><path class="cls-1" d="M5.39.36a.11.11,0,0,0-.1.11v.71a.11.11,0,0,0,.1.11.11.11,0,0,0,.11-.11V.47A.11.11,0,0,0,5.39.36Z"/><path class="cls-1" d="M5.39,1.41a.1.1,0,0,0-.1.1V1.6a.11.11,0,0,0,.1.11A.11.11,0,0,0,5.5,1.6V1.51A.1.1,0,0,0,5.39,1.41Z"/></g></g></svg>