<svg xmlns="http://www.w3.org/2000/svg" viewBox="0 0 4.1 0.59"><defs><style>.cls-1{fill:#ffb800;}.cls-2{fill:#28333c;opacity:0.5;}</style></defs><g id="Layer_2" data-name="Layer 2"><g id="Object"><path class="cls-1" d="M478.39,323.79a0,0,0,0,0,0,0l-.18,0h0l-.07-.16s0,0,0,0l-.07.16h0l-.18,0a0,0,0,0,0,0,0l.14.12s0,0,0,0l0,.17a0,0,0,0,0,0,0l.15-.1h0l.15.1a0,0,0,0,0,0,0l0-.17s0,0,0,0Z" transform="translate(-477.79 -323.54)"/><path class="cls-1" d="M479.26,323.79a0,0,0,0,0,0,0l-.18,0h0l-.07-.16s0,0,0,0l-.07.16h0l-.18,0a0,0,0,0,0,0,0l.14.12s0,0,0,0l0,.17a0,0,0,0,0,0,0l.15-.1h0l.15.1a0,0,0,0,0,0,0l0-.17s0,0,0,0Z" transform="translate(-477.79 -323.54)"/><path class="cls-1" d="M480.13,323.79a0,0,0,0,0,0,0l-.18,0h0l-.07-.16s0,0,0,0l-.07.16h0l-.18,0a0,0,0,0,0,0,0l.14.12s0,0,0,0l0,.17a0,0,0,0,0,0,0l.15-.1h0l.15.1a0,0,0,0,0,0,0l0-.17s0,0,0,0Z" transform="translate(-477.79 -323.54)"/><path class="cls-1" d="M481,323.79a0,0,0,0,0,0,0l-.18,0h0l-.07-.16s0,0,0,0l-.07.16h0l-.18,0a0,0,0,0,0,0,0l.14.12s0,0,0,0l0,.17a0,0,0,0,0,0,0l.15-.1h0l.15.1a0,0,0,0,0,0,0l0-.17s0,0,0,0Z" transform="translate(-477.79 -323.54)"/><path class="cls-2" d="M481.87,323.79a0,0,0,0,0,0,0l-.18,0h0l-.06-.16a0,0,0,0,0-.05,0l-.07.16h0l-.18,0a0,0,0,0,0,0,0l.14.12s0,0,0,0l0,.17a0,0,0,0,0,0,0l.15-.1h0l.15.1a0,0,0,0,0,0,0l0-.17s0,0,0,0Z" transform="translate(-477.79 -323.54)"/></g></g></svg>