<svg xmlns="http://www.w3.org/2000/svg" viewBox="0 0 1.49 1.49"><defs><style>.cls-1{fill:#ffba5a;}.cls-2{fill:#fff;}</style></defs><g id="Layer_2" data-name="Layer 2"><g id="Text"><path class="cls-1" d="M1.49.74A.75.75,0,1,1,0,.74.74.74,0,0,1,.74,0,.74.74,0,0,1,1.49.74Z"/><path class="cls-2" d="M.8,1.08A.38.38,0,0,1,.41.69.38.38,0,0,1,.73.31a0,0,0,0,1,0,0,0,0,0,0,1,0,0,.23.23,0,0,0,0,.14A.25.25,0,0,0,1,.77a.23.23,0,0,0,.14,0s0,0,0,0,0,0,0,0A.38.38,0,0,1,.8,1.08ZM.66.41A.31.31,0,0,0,.48.69.32.32,0,0,0,.8,1,.31.31,0,0,0,1.08.83L1,.85A.34.34,0,0,1,.64.51.36.36,0,0,1,.66.41Z"/></g></g></svg>