<svg xmlns="http://www.w3.org/2000/svg" viewBox="0 0 1.49 1.49"><defs><style>.cls-1{fill:#665c84;}.cls-2{fill:#fff;}</style></defs><g id="Layer_2" data-name="Layer 2"><g id="Text"><path class="cls-1" d="M1.49.74A.75.75,0,1,1,0,.74.74.74,0,0,1,.74,0,.74.74,0,0,1,1.49.74Z"/><path class="cls-2" d="M.54,1.14l-.05,0a.19.19,0,0,1,0-.26L.58.77a0,0,0,0,0,0-.05L.57.6a.08.08,0,0,1,0,0l0,0a.19.19,0,0,0,.11,0,.18.18,0,0,0,0-.1.05.05,0,0,1,0,0h0L1,.52A.15.15,0,0,1,1,.7l-.43.42ZM.63.58h0l0,.12a.1.1,0,0,1,0,.1L.53.89a.14.14,0,0,0,0,.19,0,0,0,0,0,0,0L1,.66a.07.07,0,0,0,0-.1L.83.41A.17.17,0,0,1,.77.52.18.18,0,0,1,.64.58Z"/><path class="cls-2" d="M.56,1s0,0,0,0L.49.89a0,0,0,0,1,0,0,0,0,0,0,1,0,0l0,.05s0,0,0,0A0,0,0,0,1,.56,1Z"/><path class="cls-2" d="M.61.89a0,0,0,0,1,0,0l0,0a0,0,0,0,1,0,0,0,0,0,0,1,0,0l0,0a0,0,0,0,1,0,0S.62.89.61.89Z"/><path class="cls-2" d="M.67.83a0,0,0,0,1,0,0L.61.78a0,0,0,0,1,0,0,0,0,0,0,1,0,0l0,.05a0,0,0,0,1,0,0S.68.83.67.83Z"/><path class="cls-2" d="M1,.72H1l0,0a.12.12,0,0,1,0-.14l0,0a0,0,0,0,1,0,0,0,0,0,0,1,0,0l0,0A.06.06,0,0,0,1,.65l0,0a0,0,0,0,1,0,0Z"/></g></g></svg>