<svg xmlns="http://www.w3.org/2000/svg" viewBox="0 0 1.49 1.49"><defs><style>.cls-1{fill:#665c84;}.cls-2{fill:#fff;}</style></defs><g id="Layer_2" data-name="Layer 2"><g id="Text"><path class="cls-1" d="M1.49.74A.75.75,0,1,1,0,.74.74.74,0,0,1,.74,0,.74.74,0,0,1,1.49.74Z"/><path class="cls-2" d="M.74,1.1A.29.29,0,1,1,1,.81.29.29,0,0,1,.74,1.1Zm0-.51A.22.22,0,0,0,.53.81.21.21,0,0,0,.74,1,.21.21,0,0,0,1,.81.22.22,0,0,0,.74.59Z"/><rect class="cls-2" x="0.72" y="0.72" width="0.15" height="0.08" transform="translate(-0.3 0.79) rotate(-45.05)"/><rect class="cls-2" x="0.57" y="0.38" width="0.35" height="0.08"/></g></g></svg>