<svg xmlns="http://www.w3.org/2000/svg" viewBox="0 0 6.01 2.81"><defs><style>.cls-1{fill:#abe9ff;}.cls-2{fill:#4fbef8;}.cls-3{fill:#f2f2f3;}.cls-4{fill:#28333c;}</style></defs><g id="Layer_2" data-name="Layer 2"><g id="Text"><path class="cls-1" d="M.07,2.36A.08.08,0,0,1,0,2.29V.53A.07.07,0,0,1,.07.46.07.07,0,0,1,.14.53V2.29A.08.08,0,0,1,.07,2.36Z"/><path class="cls-2" d="M.6,2.81a.07.07,0,0,1-.07-.07V.07a.07.07,0,0,1,.14,0V2.74A.07.07,0,0,1,.6,2.81Z"/><path class="cls-3" d="M1.14,2.46a.07.07,0,0,1-.07-.07v-2a.07.07,0,0,1,.14,0v2A.07.07,0,0,1,1.14,2.46Z"/><path class="cls-2" d="M1.67,2.3a.07.07,0,0,1-.07-.07V.58a.07.07,0,1,1,.14,0V2.23A.07.07,0,0,1,1.67,2.3Z"/><path class="cls-1" d="M2.2,2a.08.08,0,0,1-.07-.07V.87A.08.08,0,0,1,2.2.8a.07.07,0,0,1,.07.07V1.94A.07.07,0,0,1,2.2,2Z"/><path class="cls-3" d="M2.74,2.05A.07.07,0,0,1,2.67,2V.83a.07.07,0,0,1,.14,0V2A.07.07,0,0,1,2.74,2.05Z"/><path class="cls-2" d="M3.27,1.76a.07.07,0,0,1-.07-.07V1.13a.07.07,0,1,1,.14,0v.56A.07.07,0,0,1,3.27,1.76Z"/><path class="cls-3" d="M3.81,2.13a.08.08,0,0,1-.07-.07V.76A.07.07,0,0,1,3.81.69a.08.08,0,0,1,.07.07v1.3A.08.08,0,0,1,3.81,2.13Z"/><path class="cls-2" d="M4.34,1.61a.07.07,0,0,1-.07-.07V1.28a.07.07,0,1,1,.14,0v.26A.07.07,0,0,1,4.34,1.61Z"/><path class="cls-4" d="M4.94,1.41a.07.07,0,1,1-.07-.07A.07.07,0,0,1,4.94,1.41Z"/><path class="cls-4" d="M6,1.41a.07.07,0,1,1-.07-.07A.07.07,0,0,1,6,1.41Z"/><path class="cls-4" d="M5.48,1.41a.08.08,0,0,1-.07.07.07.07,0,1,1,0-.14A.08.08,0,0,1,5.48,1.41Z"/></g></g></svg>