<svg xmlns="http://www.w3.org/2000/svg" viewBox="0 0 1.08 1.37"><defs><style>.cls-1{fill:#28333c;}.cls-2{fill:#f2f2f3;}.cls-3{fill:#ff5c70;}</style></defs><g id="Layer_2" data-name="Layer 2"><g id="Text"><rect class="cls-1" y="0.94" width="1.08" height="0.15"/><path class="cls-1" d="M1.08,1.09C.85,1.09.81.64.81.51A.27.27,0,0,0,.27.5.77.77,0,0,1,.15,1,.18.18,0,0,1,0,1.09V.94a.05.05,0,0,0,0,0A.67.67,0,0,0,.12.51.42.42,0,0,1,.54.08.42.42,0,0,1,1,.5c0,.24.08.44.12.44Z"/><rect class="cls-1" x="0.45" y="1.22" width="0.18" height="0.15"/><rect class="cls-1" x="0.46" width="0.15" height="0.16"/><path class="cls-2" d="M1,.31A.23.23,0,0,1,.8.54.23.23,0,0,1,.58.31.23.23,0,1,1,1,.31Z"/><path class="cls-3" d="M1,.31A.15.15,0,0,1,.8.45.15.15,0,0,1,.66.3.15.15,0,0,1,.81.17.14.14,0,0,1,1,.31Z"/></g></g></svg>